<svg width="24" height="14" viewBox="0 0 24 14" fill="none" xmlns="http://www.w3.org/2000/svg">
<path d="M12.0003 13.1496C11.8003 13.1496 11.617 13.1163 11.4503 13.0496C11.2836 12.983 11.117 12.8663 10.9503 12.6996L1.0503 2.79963C0.783632 2.53296 0.658632 2.17463 0.675299 1.72463C0.691965 1.27463 0.833632 0.916292 1.1003 0.649626C1.43363 0.316292 1.79197 0.174626 2.1753 0.224626C2.55863 0.274626 2.9003 0.43296 3.2003 0.699627L12.0003 9.49963L20.8003 0.699627C21.067 0.43296 21.4253 0.282959 21.8753 0.249626C22.3253 0.216293 22.6836 0.366293 22.9503 0.699627C23.2836 0.966293 23.4253 1.31629 23.3753 1.74963C23.3253 2.18296 23.167 2.54963 22.9003 2.84963L13.0503 12.6996C12.8836 12.8663 12.717 12.983 12.5503 13.0496C12.3836 13.1163 12.2003 13.1496 12.0003 13.1496V13.1496Z" fill="black" fill-opacity="0.33"/>
</svg>
