<svg width="23" height="13" viewBox="0 0 23 13" fill="none" xmlns="http://www.w3.org/2000/svg">
<path d="M0.476316 12.45C0.176316 12.15 0.0179825 11.8 0.00131579 11.4C-0.0153509 11 0.126316 10.65 0.426316 10.35L10.3263 0.449999C10.493 0.283332 10.6597 0.166665 10.8263 0.0999985C10.993 0.0333318 11.1763 0 11.3763 0C11.5763 0 11.7596 0.0333318 11.9263 0.0999985C12.093 0.166665 12.2596 0.283332 12.4263 0.449999L22.3263 10.3C22.6263 10.5667 22.7763 10.9083 22.7763 11.325C22.7763 11.7417 22.6263 12.1 22.3263 12.4C22.0263 12.7 21.668 12.85 21.2513 12.85C20.8346 12.85 20.4763 12.7 20.1763 12.4L11.3763 3.65L2.57632 12.5C2.30965 12.8 1.96798 12.9417 1.55132 12.925C1.13465 12.9083 0.776316 12.75 0.476316 12.45V12.45Z" fill="black" fill-opacity="0.44"/>
</svg>
